HIERARCHY
ROOT RootJoint
{
    OFFSET   0.000000   0.000000   0.000000
    CHANNELS 6 Xposition Yposition Zposition Xrotation Yrotation Zrotation
    JOINT pelvis_lowerback
    {
        OFFSET   0.000000   0.093605   0.000000
        CHANNELS 3 Xrotation Yrotation Zrotation
        JOINT lowerback_torso
        {
            OFFSET   0.000000   0.100000   0.000000
            CHANNELS 3 Xrotation Yrotation Zrotation
            JOINT torso_head
            {
                OFFSET   0.000000   0.282350   0.000000
                CHANNELS 3 Xrotation Yrotation Zrotation
                End Site
                {
                    OFFSET   0.000000   0.192650   0.000000
                }
            }
            JOINT rTorso_Clavicle
            {
                OFFSET  -0.001000   0.157500   0.000000
                CHANNELS 3 Xrotation Yrotation Zrotation
                JOINT rShoulder
                {
                    OFFSET  -0.117647   0.000000   0.000000
                    CHANNELS 3 Xrotation Yrotation Zrotation
                    JOINT rElbow
                    {
                        OFFSET  -0.245000   0.000000   0.000000
                        CHANNELS 3 Xrotation Yrotation Zrotation
                        JOINT rWrist
                        {
                            OFFSET  -0.240000   0.000000   0.000000
                            CHANNELS 3 Xrotation Yrotation Zrotation
                            End Site
                            {
                                OFFSET  -0.116353  -0.002500   0.000000
                            }
                        }
                    }
                }
            }
            JOINT lTorso_Clavicle
            {
                OFFSET   0.001000   0.157500   0.000000
                CHANNELS 3 Xrotation Yrotation Zrotation
                JOINT lShoulder
                {
                    OFFSET   0.117647   0.000000   0.000000
                    CHANNELS 3 Xrotation Yrotation Zrotation
                    JOINT lElbow
                    {
                        OFFSET   0.245000   0.000000   0.000000
                        CHANNELS 3 Xrotation Yrotation Zrotation
                        JOINT lWrist
                        {
                            OFFSET   0.240000   0.000000   0.000000
                            CHANNELS 3 Xrotation Yrotation Zrotation
                            End Site
                            {
                                OFFSET   0.116353  -0.002500   0.000000
                            }
                        }
                    }
                }
            }
        }
    }
    JOINT rHip
    {
        OFFSET  -0.100000  -0.051395   0.000000
        CHANNELS 3 Xrotation Yrotation Zrotation
        JOINT rKnee
        {
            OFFSET   0.000000  -0.410000   0.000000
            CHANNELS 3 Xrotation Yrotation Zrotation
            JOINT rAnkle
            {
                OFFSET   0.000000  -0.390000   0.000000
                CHANNELS 3 Xrotation Yrotation Zrotation
                JOINT rToeJoint
                {
                    OFFSET   0.000000  -0.050000   0.130000
                    CHANNELS 3 Xrotation Yrotation Zrotation
                    End Site
                    {
                        OFFSET  -0.010000   0.002000   0.060000
                    }
                }
            }
        }
    }
    JOINT lHip
    {
        OFFSET   0.100000  -0.051395   0.000000
        CHANNELS 3 Xrotation Yrotation Zrotation
        JOINT lKnee
        {
            OFFSET   0.000000  -0.410000   0.000000
            CHANNELS 3 Xrotation Yrotation Zrotation
            JOINT lAnkle
            {
                OFFSET   0.000000  -0.390000   0.000000
                CHANNELS 3 Xrotation Yrotation Zrotation
                JOINT lToeJoint
                {
                    OFFSET   0.000000  -0.050000   0.130000
                    CHANNELS 3 Xrotation Yrotation Zrotation
                    End Site
                    {
                        OFFSET   0.010000   0.002000   0.060000
                    }
                }
            }
        }
    }
}
MOTION
Frames: 7
Frame Time:   0.008333
 -2.008820   0.908683   5.269491 -25.009252  65.208409  21.021305   9.785151  -3.563924  -0.972683   0.892804  -2.678215   0.044873   1.540117   2.557728  -0.660710   3.766272 -13.857639   3.991996   1.902531 -13.477848  46.878452   0.019910  52.573052  -0.016988  -0.079096   2.817534 -19.320261  -1.946207   3.896419  -3.356411 -23.425426   9.115536 -44.111691   0.002517 -71.290970   0.000660  -4.408144  -3.318897  28.698759  -6.512481  -0.393401  -2.647913  25.096533   0.012400  -0.014677  -3.613350  -7.499274   4.462536  -0.201409  -0.003425   0.001526   9.182553  -6.789528   3.287855  24.705147  -0.004318   0.008472 -14.612430  -4.515848   0.997773 -14.361993  -0.000655  -0.009092
 -2.005725   0.906500   5.274466 -25.594246  65.425768  21.502361   9.896857  -3.682641  -1.045621   0.934148  -2.753615   0.021802   1.574329   2.583400  -0.676484   3.848728 -14.012047   4.246837   1.546339 -13.967195  46.616509   0.024119  51.531779  -0.022629  -0.136896   2.827482 -19.283631  -1.913850   4.050118  -3.536276 -23.450808   9.212121 -44.033910  -0.000267 -71.643258  -0.002408  -4.391437  -3.365911  28.532291  -5.838859  -0.753174  -2.176612  24.706090   0.011467  -0.012164  -4.437891  -7.492984   4.093453   0.165048  -0.003217   0.001791   8.531355  -6.698970   3.507994  27.012472  -0.003453   0.016434 -15.008699  -4.459788   0.656737 -15.926660  -0.002306  -0.014770
 -2.002575   0.903816   5.279485 -26.254807  65.516135  22.036675  10.039306  -3.737333  -1.121633   1.027272  -2.782901   0.001100   1.627666   2.608616  -0.687824   3.913027 -14.154436   4.476285   1.191297 -14.430447  46.339217   0.026725  50.544029  -0.026083  -0.225118   2.752560 -19.362070  -1.876946   4.226172  -3.714155 -23.472361   9.322682 -43.948231  -0.002610 -71.968946  -0.004853  -4.367393  -3.431361  28.440709  -5.132483  -1.074222  -1.705953  24.383937   0.010438  -0.009857  -5.217916  -7.480627   3.748295   0.429403  -0.002937   0.001640   7.906455  -6.591666   3.726478  29.461937  -0.002949   0.021847 -15.392975  -4.383207   0.340709 -17.665660  -0.003298  -0.019443
 -1.999443   0.901015   5.284465 -26.783249  65.469379  22.374845  10.171875  -3.728800  -1.147424   1.126129  -2.756905  -0.007387   1.682950   2.633693  -0.696654   3.963194 -14.275046   4.692769   0.845258 -14.856146  46.065816   0.027815  49.618279  -0.027984  -0.317737   2.655867 -19.465441  -1.820484   4.424885  -3.913291 -23.473164   9.452262 -43.869724  -0.004122 -72.263940  -0.006415  -4.354151  -3.474784  28.404032  -4.419420  -1.396583  -1.265695  24.204763   0.008967  -0.007666  -6.234876  -7.527962   3.425618  -2.163808   0.000377   0.004865   7.341735  -6.492651   4.006763  31.838507  -0.003683   0.023031 -15.743437  -4.300016   0.051960 -19.233537  -0.003546  -0.020480
 -1.996400   0.898170   5.289430 -27.155057  65.354931  22.531752  10.276221  -3.695594  -1.168639   1.211600  -2.703898  -0.006971   1.734527   2.657233  -0.700880   4.006300 -14.382046   4.906507   0.517967 -15.247973  45.814287   0.027864  48.754635  -0.028833  -0.406491   2.563666 -19.557845  -1.751476   4.634435  -4.113114 -23.460270   9.591049 -43.795002  -0.004950 -72.531953  -0.007272  -4.357136  -3.486293  28.397558  -3.693986  -1.673328  -0.828551  24.086872   0.007546  -0.005926  -7.235394  -7.513996   3.148327  -5.046191   0.002704   0.008407   6.809516  -6.414863   4.323426  34.096449  -0.005140   0.021988 -16.056626  -4.222490  -0.213295 -20.559094  -0.003321  -0.019310
 -1.993775   0.896276   5.294158 -27.499182  65.217571  22.478871  10.439943  -3.653051  -1.056452   1.305478  -2.637828   0.051701   1.780077   2.678990  -0.699929   4.023126 -14.449165   5.160625   0.194338 -15.595824  45.590975   0.026461  47.941185  -0.028340  -0.500094   2.452627 -19.630204  -1.674362   4.820821  -4.378478 -23.430299   9.733356 -43.755252  -0.004690 -72.768823  -0.007131  -4.376918  -3.464745  28.400661  -3.074946  -1.866326  -0.217812  24.063874   0.006105  -0.004708  -8.781561  -7.400521   2.696135  -4.321407   0.002396   0.006708   6.329158  -6.372545   4.823690  36.201317  -0.006842   0.019881 -16.265993  -4.126273  -0.431254 -20.879239  -0.002606  -0.015982
 -1.991204   0.895517   5.298784 -28.126516  65.124757  22.590306  10.662184  -3.647551  -0.905581   1.450663  -2.598032   0.148353   1.833987   2.697826  -0.690789   4.039278 -14.506703   5.448367  -0.099642 -15.916386  45.414059   0.024358  47.177658  -0.027106  -0.597015   2.325788 -19.646644  -1.589357   4.979482  -4.668993 -23.384509   9.868417 -43.745301  -0.004043 -72.981056  -0.006654  -4.418361  -3.400989  28.359727  -2.626605  -2.080365   0.466862  24.409948   0.004028  -0.004007  -9.329365  -7.287043   2.433135  -3.702309   0.001969   0.005342   5.987236  -6.362180   5.430067  38.153356  -0.007468   0.018882 -16.347575  -4.015569  -0.598046 -19.892685  -0.002511  -0.010682
